<svg xmlns="http://www.w3.org/2000/svg" width="472" height="414" fill="none" viewBox="0 0 472 414"><path fill="url(#paint0_linear_50_2651)" fill-rule="evenodd" d="M143.098 -148.546C197.682 -146.29 245.716 -122.531 295.309 -99.6154C358.576 -70.3811 465.386 -66.2387 471.473 3.18965C478.156 79.424 349.789 97.0174 318.676 166.934C293.292 223.976 361.414 305.47 317.297 349.65C275.206 391.803 202.123 334.729 143.098 342.767C68.3964 352.939 -6.72221 444.265 -69.3559 402.303C-131.081 360.949 -83.0744 259.818 -90.9816 185.942C-96.7703 131.859 -122.264 80.6898 -109.437 27.8316C-95.9578 -27.7121 -65.3944 -79.8575 -18.5359 -112.585C27.8504 -144.982 86.5663 -150.882 143.098 -148.546Z" clip-rule="evenodd"/><defs><linearGradient id="paint0_linear_50_2651" x1="523.497" x2="-616.104" y1="-310.652" y2="-232.207" gradientUnits="userSpaceOnUse"><stop stop-color="#00DACC"/><stop offset="1" stop-color="#698AFF"/></linearGradient></defs></svg>